# xmcd
#
# Track frame offsets:
# 150
# 13536
# 24271
# 43612
# 55454
# 69406
# 82971
# 106804
# 118490
# 132587
#
# Disc length: 2040 seconds
#
# Revision: 1
# Processed by: cddbd v1.5.2PL0 Copyright (c) Steve Scherf et al.
# Submitted via: CedeCatalogueitor 2.6.0.6 http://personales.ya.com/cdcatalogueitor
#
DISCID=8207f60a
DTITLE=Tarik Y La Fábrica De Colores - El Hueso Y La Carne
DYEAR=1900
DGENRE=
TTITLE0=Tiene Que Pasar
TTITLE1=Anticipo
TTITLE2=Tormenta Esta Noche
TTITLE3=Vuelta A Los Colores
TTITLE4=Subir Al Tren
TTITLE5=Agosto, Por Ejemplo
TTITLE6=Antes De La Niebla
TTITLE7=Fountaine, Fountaine
TTITLE8=La Ascensión De Lupo
TTITLE9=Nadador
EXTD=
EXTT0=
EXTT1=
EXTT2=
EXTT3=
EXTT4=
EXTT5=
EXTT6=
EXTT7=
EXTT8=
EXTT9=
PLAYORDER=
